<svg width="100" height="100" viewBox="0 0 100 100" fill="none" xmlns="http://www.w3.org/2000/svg">
<path d="M43.5484 37.0967C44.4392 37.0967 45.1613 36.3745 45.1613 35.4838C45.1613 34.593 44.4392 33.8708 43.5484 33.8708C42.6576 33.8708 41.9355 34.593 41.9355 35.4838C41.9355 36.3745 42.6576 37.0967 43.5484 37.0967Z" fill="black"/>
<path d="M27.4194 37.0967C28.3101 37.0967 29.0323 36.3745 29.0323 35.4838C29.0323 34.593 28.3101 33.8708 27.4194 33.8708C26.5286 33.8708 25.8065 34.593 25.8065 35.4838C25.8065 36.3745 26.5286 37.0967 27.4194 37.0967Z" fill="black"/>
<path d="M95.1613 0H56.4516C53.7839 0 51.6129 2.17097 51.6129 4.83871V6.21129C47.3274 2.36452 41.6839 0 35.4839 0C22.1435 0 11.2903 10.8532 11.2903 24.1935V29.0323H11.3403C9.36452 30.5032 8.06452 32.8371 8.06452 35.4839C8.06452 38.1081 9.34355 40.421 11.2903 41.8936V46.7742C11.2903 49.4419 13.4613 51.6129 16.129 51.6129H19.7C20.8097 53.7742 22.3355 55.6871 24.1935 57.2242V60.0516L8.38065 64.2677C3.44677 65.5839 0 70.0694 0 75.1774V100H70.9677V75.1774C70.9677 70.0694 67.521 65.5839 62.5871 64.2677L46.7742 60.0516V57.2242C50.7113 53.9677 53.2258 49.0468 53.2258 43.5484H54.8387C59.2855 43.5484 62.9032 39.9306 62.9032 35.4839C62.9032 32.8371 61.6032 30.5032 59.6274 29.0323H59.6774H74.1936V40.3226L89.2468 29.0323H95.1613C97.829 29.0323 100 26.8613 100 24.1935V4.83871C100 2.17097 97.829 0 95.1613 0ZM14.5161 24.1935C14.5161 12.6323 23.9226 3.22581 35.4839 3.22581C47.0452 3.22581 56.4516 12.6323 56.4516 24.1935V27.5823C55.9306 27.4758 55.3903 27.4194 54.8387 27.4194H53.2258H51.6129C46.8435 27.4194 42.3597 25.5613 38.9871 22.1887L35.4839 18.6871L31.9806 22.1887C28.6081 25.5613 24.1242 27.4194 19.3548 27.4194H17.7419H16.129C15.5774 27.4194 15.0371 27.4758 14.5161 27.5823V24.1935ZM16.129 30.6452H17.7419V40.3226H16.129C13.4613 40.3226 11.2903 38.1516 11.2903 35.4839C11.2903 32.8161 13.4613 30.6452 16.129 30.6452ZM16.129 48.3871C15.2387 48.3871 14.5161 47.6629 14.5161 46.7742V43.3855C15.0371 43.4919 15.5774 43.5484 16.129 43.5484H17.7419C17.7419 45.2274 17.9919 46.8468 18.429 48.3871H16.129ZM25.3242 63.0887L33.0952 70.8597L26.3177 76.5081L20.0984 64.4823L25.3242 63.0887ZM39.7323 76.6081L37.7129 80.6452H33.2548L31.2371 76.6081L35.4839 73.0677L39.7323 76.6081ZM33.7177 83.871H37.2516L38.5419 96.7742H32.429L33.7177 83.871ZM9.2129 67.3855L16.9048 65.3339L25.2968 81.5581L28.6903 78.729L30.6081 82.5629L29.1855 96.7742H16.129V79.0323H12.9032V87.0968H3.22581V75.1774C3.22581 71.529 5.6871 68.3242 9.2129 67.3855ZM3.22581 90.3226H12.9032V96.7742H3.22581V90.3226ZM58.0645 96.7742V90.3226H67.7419V96.7742H58.0645ZM67.7419 75.1774V87.0968H58.0645V79.0323H54.8387V96.7742H41.7823L40.3597 82.5613L42.2774 78.7274L45.6645 81.55L54.1258 65.3484L61.7548 67.3839C65.2806 68.3242 67.7419 71.529 67.7419 75.1774ZM50.9306 64.4984L44.6565 76.5129L37.8726 70.8597L45.6435 63.0887L50.9306 64.4984ZM43.5484 60.6226L35.4839 68.6871L27.4194 60.6226V59.3323C29.8419 60.5742 32.579 61.2903 35.4839 61.2903C38.3887 61.2903 41.1258 60.5742 43.5484 59.3323V60.6226ZM50 43.5484C50 51.5516 43.4887 58.0645 35.4839 58.0645C30.4613 58.0645 26.029 55.5 23.4226 51.6129H27.7177C28.3855 53.4855 30.1597 54.8387 32.2597 54.8387H38.7113C41.379 54.8387 43.55 52.6677 43.55 50C43.55 47.3323 41.379 45.1613 38.7113 45.1613H32.2597C30.1597 45.1613 28.3855 46.5145 27.7177 48.3871H21.8161C21.2758 46.871 20.9677 45.2468 20.9677 43.5484V30.5839C25.9903 30.2065 30.6629 28.0694 34.2613 24.4694L35.4839 23.2484L36.7065 24.4694C40.3048 28.0694 44.9774 30.2065 50 30.5839V43.5484ZM30.6452 50C30.6452 49.1113 31.3677 48.3871 32.2581 48.3871H38.7097C39.6 48.3871 40.3226 49.1113 40.3226 50C40.3226 50.8887 39.6 51.6129 38.7097 51.6129H32.2581C31.3677 51.6129 30.6452 50.8887 30.6452 50ZM54.8387 40.3226H53.2258V30.6452H54.8387C57.5065 30.6452 59.6774 32.8161 59.6774 35.4839C59.6774 38.1516 57.5065 40.3226 54.8387 40.3226ZM96.7742 24.1935C96.7742 25.0823 96.0516 25.8065 95.1613 25.8065H88.1726L77.4194 33.871V25.8065H59.6774V24.1935C59.6774 18.771 57.8629 13.7774 54.8387 9.73871V4.83871C54.8387 3.95 55.5613 3.22581 56.4516 3.22581H95.1613C96.0516 3.22581 96.7742 3.95 96.7742 4.83871V24.1935Z" fill="black"/>
<path d="M88.7097 9.67749C86.0419 9.67749 83.871 11.8485 83.871 14.5162C83.871 17.1839 86.0419 19.3549 88.7097 19.3549C91.3774 19.3549 93.5484 17.1839 93.5484 14.5162C93.5484 11.8485 91.3774 9.67749 88.7097 9.67749ZM88.7097 16.1291C87.8194 16.1291 87.0968 15.4049 87.0968 14.5162C87.0968 13.6275 87.8194 12.9033 88.7097 12.9033C89.6 12.9033 90.3226 13.6275 90.3226 14.5162C90.3226 15.4049 89.6 16.1291 88.7097 16.1291Z" fill="black"/>
<path d="M75.8065 9.67749C73.1387 9.67749 70.9678 11.8485 70.9678 14.5162C70.9678 17.1839 73.1387 19.3549 75.8065 19.3549C78.4742 19.3549 80.6452 17.1839 80.6452 14.5162C80.6452 11.8485 78.4742 9.67749 75.8065 9.67749ZM75.8065 16.1291C74.9162 16.1291 74.1936 15.4049 74.1936 14.5162C74.1936 13.6275 74.9162 12.9033 75.8065 12.9033C76.6968 12.9033 77.4194 13.6275 77.4194 14.5162C77.4194 15.4049 76.6968 16.1291 75.8065 16.1291Z" fill="black"/>
<path d="M62.9032 9.67749C60.2355 9.67749 58.0645 11.8485 58.0645 14.5162C58.0645 17.1839 60.2355 19.3549 62.9032 19.3549C65.571 19.3549 67.7419 17.1839 67.7419 14.5162C67.7419 11.8485 65.571 9.67749 62.9032 9.67749ZM62.9032 16.1291C62.0129 16.1291 61.2903 15.4049 61.2903 14.5162C61.2903 13.6275 62.0129 12.9033 62.9032 12.9033C63.7935 12.9033 64.5161 13.6275 64.5161 14.5162C64.5161 15.4049 63.7935 16.1291 62.9032 16.1291Z" fill="black"/>
</svg>
