<svg width="19" height="20" viewBox="0 0 19 20" fill="none" xmlns="http://www.w3.org/2000/svg">
<path d="M9.0625 3.75C9.58031 3.75 10 3.33031 10 2.8125V0.9375C10 0.419688 9.58031 0 9.0625 0C8.54469 0 8.125 0.419688 8.125 0.9375V2.8125C8.125 3.33031 8.54469 3.75 9.0625 3.75ZM13.75 3.75C14.2678 3.75 14.6875 3.33031 14.6875 2.8125V0.9375C14.6875 0.419688 14.2678 0 13.75 0C13.2322 0 12.8125 0.419688 12.8125 0.9375V2.8125C12.8125 3.33031 13.2322 3.75 13.75 3.75ZM4.375 3.75C4.89281 3.75 5.3125 3.33031 5.3125 2.8125V0.9375C5.3125 0.419688 4.89281 0 4.375 0C3.85719 0 3.4375 0.419688 3.4375 0.9375V2.8125C3.4375 3.33031 3.85719 3.75 4.375 3.75ZM17.1875 1.875H15.625V2.8125C15.625 3.84812 14.7856 4.6875 13.75 4.6875C12.7144 4.6875 11.875 3.84812 11.875 2.8125V1.875H10.9375V2.8125C10.9375 3.84812 10.0981 4.6875 9.0625 4.6875C8.02688 4.6875 7.1875 3.84812 7.1875 2.8125V1.875H6.25V2.8125C6.25 3.84812 5.41062 4.6875 4.375 4.6875C3.33938 4.6875 2.5 3.84812 2.5 2.8125V1.875H0.9375C0.419688 1.875 0 2.29469 0 2.8125V19.0625C0 19.5803 0.419688 20 0.9375 20H17.1875C17.7053 20 18.125 19.5803 18.125 19.0625V2.8125C18.125 2.29469 17.7053 1.875 17.1875 1.875ZM14.8438 16.875H3.28125C2.84969 16.875 2.5 16.5253 2.5 16.0938C2.5 15.6622 2.84969 15.3125 3.28125 15.3125H14.8438C15.2753 15.3125 15.625 15.6622 15.625 16.0938C15.625 16.5253 15.2753 16.875 14.8438 16.875ZM14.6875 13.125H3.4375C2.91969 13.125 2.5 12.7053 2.5 12.1875C2.5 11.6697 2.91969 11.25 3.4375 11.25H14.6875C15.2053 11.25 15.625 11.6697 15.625 12.1875C15.625 12.7053 15.2053 13.125 14.6875 13.125ZM14.6875 9.0625H3.4375C2.91969 9.0625 2.5 8.64281 2.5 8.125C2.5 7.60719 2.91969 7.1875 3.4375 7.1875H14.6875C15.2053 7.1875 15.625 7.60719 15.625 8.125C15.625 8.64281 15.2053 9.0625 14.6875 9.0625Z" fill="black"/>
</svg>
