<svg width="22" height="22" viewBox="0 0 22 22" fill="none" xmlns="http://www.w3.org/2000/svg">
<path d="M8.89469 8.36842C8.89469 8.65895 8.65891 8.89474 8.36838 8.89474H1.52631C1.23579 8.89474 1 8.65895 1 8.36842V1.52632C1 1.23579 1.23579 1 1.52631 1H8.36838C8.65891 1 8.89469 1.23579 8.89469 1.52632V8.36842Z" stroke="black" stroke-width="2" stroke-miterlimit="10" stroke-linecap="round" stroke-linejoin="round"/>
<path d="M20.9999 8.36842C20.9999 8.65895 20.7641 8.89474 20.4736 8.89474H13.6315C13.341 8.89474 13.1052 8.65895 13.1052 8.36842V1.52632C13.1052 1.23579 13.341 1 13.6315 1H20.4736C20.7641 1 20.9999 1.23579 20.9999 1.52632V8.36842Z" stroke="black" stroke-width="2" stroke-miterlimit="10" stroke-linecap="round" stroke-linejoin="round"/>
<path d="M8.89469 20.4736C8.89469 20.7642 8.65891 21 8.36838 21H1.52631C1.23579 21 1 20.7642 1 20.4736V13.6315C1 13.341 1.23579 13.1052 1.52631 13.1052H8.36838C8.65891 13.1052 8.89469 13.341 8.89469 13.6315V20.4736Z" stroke="black" stroke-width="2" stroke-miterlimit="10" stroke-linecap="round" stroke-linejoin="round"/>
<path d="M21 20.4736C21 20.7642 20.7642 21 20.4737 21H13.6316C13.3411 21 13.1053 20.7642 13.1053 20.4736V13.6315C13.1053 13.341 13.3411 13.1052 13.6316 13.1052H20.4737C20.7642 13.1052 21 13.341 21 13.6315V20.4736Z" stroke="black" stroke-width="2" stroke-miterlimit="10" stroke-linecap="round" stroke-linejoin="round"/>
</svg>
