<svg width="19" height="20" viewBox="0 0 19 20" fill="none" xmlns="http://www.w3.org/2000/svg">
<path d="M11.9258 10.8827C12.1604 10.6719 12.3077 10.3654 12.3077 10.025C12.3077 9.68462 12.16 9.37846 11.9258 9.16731L8.07962 5.70577C7.875 5.52192 7.60462 5.40962 7.30769 5.40962C6.67038 5.40962 6.15385 5.92615 6.15385 6.56346C6.15385 6.90385 6.30115 7.21 6.53577 7.42115L8.14692 8.87115H1.15385C0.516539 8.87115 0 9.38769 0 10.025C0 10.6623 0.516539 11.1788 1.15385 11.1788H8.14692L6.53577 12.6288C6.30154 12.8404 6.15385 13.1462 6.15385 13.4865C6.15385 14.1238 6.67038 14.6404 7.30769 14.6404C7.60462 14.6404 7.875 14.5281 8.07962 14.3442L11.9258 10.8827ZM18.4615 9.99885V1.15385C18.4615 0.516539 17.945 0 17.3077 0H11.5385C10.9012 0 10.3846 0.516539 10.3846 1.15385C10.3846 1.79115 10.9012 2.30769 11.5385 2.30769H16.1538V17.6923H11.5385C10.9012 17.6923 10.3846 18.2085 10.3846 18.8462C10.3846 19.4831 10.9012 20 11.5385 20H17.3077C17.945 20 18.4615 19.4831 18.4615 18.8462V10.0008C18.4615 10.0004 18.4615 10 18.4615 9.99962C18.4615 9.99962 18.4615 9.99923 18.4615 9.99885Z" fill="white"/>
</svg>
