<svg width="37" height="40" viewBox="0 0 37 40" fill="none" xmlns="http://www.w3.org/2000/svg">
<path d="M36.9231 20C36.9231 19.3192 36.6285 18.7069 36.1592 18.2846L28.4669 11.3615C28.0577 10.9938 27.5162 10.7692 26.9231 10.7692C25.6485 10.7692 24.6154 11.8023 24.6154 13.0769C24.6154 13.7577 24.9108 14.37 25.3792 14.7923L28.6015 17.6923H14.6154C13.3408 17.6923 12.3077 18.7254 12.3077 20C12.3077 21.2746 13.3408 22.3077 14.6154 22.3077H28.6015L25.38 25.2077C24.9108 25.6308 24.6154 26.2423 24.6154 26.9231C24.6154 28.1977 25.6485 29.2308 26.9231 29.2308C27.5162 29.2308 28.0577 29.0062 28.4669 28.6385L36.1592 21.7154C36.6285 21.2938 36.9231 20.6808 36.9231 20ZM13.8462 35.3846H4.61538V4.61538H13.8462C15.1208 4.61538 16.1538 3.58231 16.1538 2.30769C16.1538 1.03308 15.1208 0 13.8462 0H2.30769C1.03308 0 0 1.03308 0 2.30769V37.6923C0 38.9669 1.03308 40 2.30769 40H13.8462C15.1208 40 16.1538 38.9669 16.1538 37.6923C16.1538 36.4177 15.1208 35.3846 13.8462 35.3846Z" fill="black"/>
</svg>
