<svg width="20" height="20" viewBox="0 0 20 20" fill="none" xmlns="http://www.w3.org/2000/svg">
<path d="M14.375 13.4378C14.375 13.4375 14.375 13.4375 14.375 13.4372V13.4378ZM14.375 6.56219V6.56281C14.375 6.56281 14.375 6.5625 14.375 6.56219C14.375 6.5625 14.375 6.5625 14.375 6.56219ZM13.75 6.5625C13.4912 6.5625 13.2569 6.6675 13.0872 6.83719L8.75 11.1744L6.60031 9.02469C6.43063 8.855 6.19625 8.75 5.9375 8.75C5.41969 8.75 5 9.16969 5 9.6875C5 9.94625 5.105 10.1806 5.27469 10.3503L8.08719 13.1628C8.25687 13.3325 8.49125 13.4375 8.75 13.4375C9.00875 13.4375 9.24313 13.3325 9.41281 13.1628L14.4128 8.16281C14.5825 7.99344 14.6875 7.75875 14.6875 7.5C14.6875 6.98219 14.2678 6.5625 13.75 6.5625ZM10 0C4.47719 0 0 4.47719 0 10C0 15.5228 4.47719 20 10 20C15.5228 20 20 15.5228 20 10C20 4.47719 15.5228 0 10 0ZM10 18.125C5.51281 18.125 1.875 14.4872 1.875 10C1.875 5.5125 5.51281 1.875 10 1.875C14.4872 1.875 18.125 5.5125 18.125 10C18.125 14.4872 14.4872 18.125 10 18.125Z" fill="#808080"/>
</svg>
