<svg width="17" height="20" viewBox="0 0 17 20" fill="none" xmlns="http://www.w3.org/2000/svg">
<path d="M15.3125 10H4.375V5.625C4.375 3.55406 6.05406 1.875 8.125 1.875C10.1959 1.875 11.875 3.55406 11.875 5.625C11.875 6.14281 12.2947 6.5625 12.8125 6.5625C13.3303 6.5625 13.75 6.14281 13.75 5.625C13.75 2.51844 11.2316 0 8.125 0C5.01844 0 2.5 2.51844 2.5 5.625V10H0.9375C0.419688 10 0 10.4197 0 10.9375V19.0625C0 19.5803 0.419688 20 0.9375 20H15.3125C15.8303 20 16.25 19.5803 16.25 19.0625V10.9375C16.25 10.4197 15.8303 10 15.3125 10ZM9.0625 15.365V17.1875C9.0625 17.7053 8.64281 18.125 8.125 18.125C7.60719 18.125 7.1875 17.7053 7.1875 17.1875V15.365C6.62937 15.0403 6.25 14.4422 6.25 13.75C6.25 12.7144 7.08938 11.875 8.125 11.875C9.16062 11.875 10 12.7144 10 13.75C10 14.4422 9.62062 15.0403 9.0625 15.365Z" fill="#808080"/>
</svg>
