<svg width="15" height="15" viewBox="0 0 15 15" fill="none" xmlns="http://www.w3.org/2000/svg">
<path fill-rule="evenodd" clip-rule="evenodd" d="M14.716 8.10379C14.9906 7.82917 14.9906 7.38403 14.716 7.10942C14.6538 7.04727 14.5822 7.0012 14.5067 6.96706L14.5073 6.9654L1.24908 0.999186L1.24825 1.00101C0.989716 0.884668 0.675827 0.93074 0.463364 1.1432C0.229024 1.37754 0.196376 1.73535 0.362104 2.00615L0.360612 2.00698L3.78257 7.6066L0.360612 13.2062L0.362104 13.2071C0.196542 13.478 0.229024 13.8357 0.463364 14.07C0.675827 14.2825 0.989716 14.3285 1.24825 14.2122L1.24908 14.214L14.5073 8.2478L14.5053 8.24349C14.5812 8.20969 14.6537 8.1661 14.716 8.10379ZM2.74693 11.9979L5.20634 7.97336L5.20485 7.97253C5.3419 7.7483 5.34107 7.4654 5.20451 7.24134L5.2065 7.24001L2.7471 3.21547L12.5055 7.6066L2.74693 11.9979Z" fill="white"/>
</svg>
