<svg width="100" height="100" viewBox="0 0 100 100" fill="none" xmlns="http://www.w3.org/2000/svg">
<path d="M51.3611 30.4914C51.9933 29.8 52.4869 28.9722 52.8105 28.0608C53.134 27.1494 53.2804 26.1744 53.2404 25.1978C53.2004 24.2211 52.9748 23.2643 52.578 22.3882C52.1812 21.5121 51.6218 20.7359 50.9356 20.109L45.4187 15.0852C45.1859 14.8732 44.9961 14.6105 44.8613 14.3139C44.7265 14.0172 44.6498 13.6932 44.636 13.3623C44.6222 13.0314 44.6716 12.7011 44.7811 12.3922C44.8906 12.0834 45.0577 11.8029 45.2719 11.5686C45.6877 11.1355 46.24 10.8939 46.8144 10.8939C47.3888 10.8939 47.9411 11.1355 48.3569 11.5686L51.6931 15.2155L54.7015 11.9268L51.3654 8.27757C50.6804 7.54189 49.8519 6.98529 48.942 6.6495V0.160478C47.5304 -0.0534928 46.0984 -0.0534928 44.6868 0.160478V6.64717C43.7765 6.98338 42.9473 7.53991 42.2612 8.27525C41.6288 8.96654 41.1349 9.79426 40.8112 10.7057C40.4875 11.6171 40.341 12.5922 40.381 13.569C40.421 14.5457 40.6467 15.5026 41.0437 16.3787C41.4407 17.2549 42.0003 18.031 42.6868 18.6577L48.2037 23.6838C48.4363 23.8956 48.626 24.158 48.7608 24.4544C48.8955 24.7507 48.9723 25.0745 48.9863 25.4051C49.0003 25.7356 48.9512 26.0658 48.8421 26.3745C48.733 26.6832 48.5664 26.9637 48.3527 27.1981C47.943 27.645 47.3879 27.8961 46.8091 27.8961C46.2303 27.8961 45.6751 27.645 45.2655 27.1981L41.9293 23.5512L38.9209 26.8399L42.257 30.4891C42.9417 31.2252 43.7703 31.7819 44.6804 32.1172V37.0316C46.092 37.2456 47.524 37.2456 48.9356 37.0316V32.1288C49.8467 31.7899 50.6759 31.2301 51.3611 30.4914Z" fill="black"/>
<path d="M99.1475 33.0171L90.6369 26.0397C90.2272 25.7038 89.7204 25.5408 89.2096 25.5806C88.6988 25.6203 88.2182 25.8601 87.8561 26.256L71.4584 44.181H31.9141C31.3499 44.1811 30.8088 44.4263 30.4099 44.8625L20.2121 56.0101L18.5249 54.1657C18.1259 53.7297 17.5848 53.4848 17.0207 53.4848C16.4565 53.4848 15.9154 53.7297 15.5164 54.1657L0.622944 70.4464C0.224073 70.8826 0 71.4741 0 72.0908C0 72.7075 0.224073 73.299 0.622944 73.7351L24.027 99.3191C24.426 99.7551 24.967 100 25.5312 100C26.0954 100 26.6365 99.7551 27.0354 99.3191L41.9289 83.0384C42.3278 82.6022 42.5519 82.0108 42.5519 81.3941C42.5519 80.7773 42.3278 80.1859 41.9289 79.7497L40.2417 77.9053L45.5608 72.0908H74.4669C74.8011 72.0912 75.1308 72.0055 75.4291 71.8406C75.7274 71.6757 75.986 71.4364 76.1839 71.1419L99.5879 36.2546C99.9195 35.7604 100.059 35.1431 99.9769 34.5368C99.8944 33.9306 99.5963 33.3844 99.1475 33.0171ZM25.5312 94.386L5.13566 72.0908L17.0207 59.0988L37.4162 81.3941L25.5312 94.386ZM73.3882 67.4392H44.6799C44.1157 67.4393 43.5746 67.6844 43.1757 68.1206L37.2332 74.6166L23.2206 59.2988L32.795 48.8326H59.5734V58.1359H44.6799V62.7875H61.701C62.2653 62.7875 62.8065 62.5425 63.2055 62.1063C63.6045 61.6701 63.8287 61.0786 63.8287 60.4617V48.8326H72.3392C72.9035 48.8325 73.4446 48.5874 73.8435 48.1512L89.5603 30.9704L94.9092 35.3569L73.3882 67.4392Z" fill="black"/>
</svg>
