<svg width="92" height="92" viewBox="0 0 92 92" fill="none" xmlns="http://www.w3.org/2000/svg">
<path d="M86.6387 24.6734C86.4 24.2221 85.9925 23.8836 85.5051 23.7316C85.0177 23.5797 84.49 23.6267 84.0371 23.8625C83.5843 24.0982 83.243 24.5035 83.0879 24.9899C82.9328 25.4763 82.9763 26.0043 83.2091 26.4587C87.3584 34.3789 88.862 43.4199 87.4993 52.2568C86.1367 61.0936 81.9795 69.2618 75.6371 75.5641C59.2589 91.9406 32.6067 91.9458 16.2216 75.5624C15.9512 75.2921 15.6067 75.108 15.2317 75.0335C14.8566 74.959 14.4679 74.9974 14.1147 75.1438C13.7615 75.2903 13.4597 75.5382 13.2474 75.8563C13.0352 76.1743 12.922 76.5482 12.9223 76.9306V88.0439C12.9223 88.5565 13.1259 89.0481 13.4884 89.4106C13.8509 89.7731 14.3426 89.9768 14.8552 89.9768C15.3679 89.9768 15.8595 89.7731 16.222 89.4106C16.5845 89.0481 16.7881 88.5565 16.7881 88.0439V81.2958C24.9577 88.0103 35.1955 91.6972 45.7702 91.7329C56.3449 91.7687 66.6074 88.1511 74.8222 81.4921C83.037 74.833 88.6998 65.5411 90.8529 55.1879C93.0061 44.8347 91.5174 34.0555 86.6387 24.6734Z" fill="black"/>
<path d="M16.2215 16.1504C32.6049 -0.231235 59.257 -0.229515 75.637 16.1487C75.9071 16.4194 76.2515 16.6039 76.6265 16.6788C77.0016 16.7536 77.3904 16.7154 77.7437 16.5691C78.097 16.4228 78.399 16.1748 78.6113 15.8568C78.8236 15.5387 78.9367 15.1647 78.9363 14.7823V3.66898C78.9363 3.15634 78.7327 2.6647 78.3702 2.30221C78.0077 1.93972 77.516 1.73607 77.0034 1.73607C76.4908 1.73607 75.9991 1.93972 75.6366 2.30221C75.2741 2.6647 75.0705 3.15634 75.0705 3.66898V10.417C57.0666 -4.40776 30.3149 -3.41039 13.4887 13.4158C6.56201 20.2977 2.02191 29.2174 0.533829 38.8675C-0.954248 48.5176 0.687966 58.3906 5.21976 67.0394C5.45847 67.4907 5.866 67.8293 6.3534 67.9812C6.84081 68.1331 7.36852 68.0861 7.82138 67.8504C8.27423 67.6146 8.61546 67.2094 8.7706 66.723C8.92574 66.2366 8.88219 65.7085 8.64945 65.2542C4.50002 57.3342 2.99646 48.2935 4.35912 39.4569C5.72178 30.6202 9.87901 22.4524 16.2215 16.1504Z" fill="black"/>
<path d="M20.6169 45.575V66.95C20.6211 68.3473 21.178 69.6862 22.1661 70.6743C23.1541 71.6624 24.493 72.2193 25.8904 72.2234H65.9682C67.3655 72.2194 68.7046 71.6626 69.6927 70.6745C70.6808 69.6864 71.2376 68.3473 71.2416 66.95V45.575C71.2376 44.1776 70.6807 42.8386 69.6926 41.8505C68.7045 40.8624 67.3655 40.3055 65.9682 40.3015H25.8904C24.4931 40.3057 23.1541 40.8626 22.1661 41.8507C21.178 42.8387 20.6211 44.1776 20.6169 45.575ZM59.9918 52.1325C60.8086 52.1325 61.6072 52.3747 62.2864 52.8285C62.9656 53.2824 63.495 53.9274 63.8076 54.6821C64.1202 55.4368 64.202 56.2672 64.0426 57.0684C63.8832 57.8696 63.4899 58.6055 62.9122 59.1831C62.3346 59.7608 61.5987 60.1541 60.7975 60.3135C59.9963 60.4728 59.1659 60.391 58.4112 60.0784C57.6565 59.7658 57.0115 59.2364 56.5576 58.5572C56.1038 57.878 55.8616 57.0795 55.8616 56.2626C55.8626 55.1676 56.2981 54.1177 57.0725 53.3433C57.8468 52.569 58.8967 52.1335 59.9918 52.1325ZM45.9293 52.1325C46.7461 52.1325 47.5447 52.3747 48.2239 52.8285C48.9031 53.2824 49.4325 53.9274 49.7451 54.6821C50.0577 55.4368 50.1394 56.2672 49.9801 57.0684C49.8207 57.8696 49.4274 58.6055 48.8497 59.1831C48.2721 59.7608 47.5362 60.1541 46.735 60.3135C45.9338 60.4728 45.1034 60.391 44.3487 60.0784C43.594 59.7658 42.949 59.2364 42.4951 58.5572C42.0413 57.878 41.7991 57.0795 41.7991 56.2626C41.8001 55.1676 42.2356 54.1177 43.01 53.3433C43.7843 52.569 44.8342 52.1335 45.9293 52.1325ZM31.8668 52.1325C32.6836 52.1325 33.4822 52.3747 34.1614 52.8285C34.8406 53.2824 35.37 53.9274 35.6826 54.6821C35.9952 55.4368 36.0769 56.2672 35.9176 57.0684C35.7582 57.8696 35.3649 58.6055 34.7872 59.1831C34.2096 59.7608 33.4737 60.1541 32.6725 60.3135C31.8713 60.4728 31.0409 60.391 30.2862 60.0784C29.5315 59.7658 28.8865 59.2364 28.4326 58.5572C27.9788 57.878 27.7366 57.0795 27.7366 56.2626C27.7376 55.1676 28.1731 54.1177 28.9475 53.3433C29.7218 52.569 30.7717 52.1335 31.8668 52.1325Z" fill="black"/>
<path d="M63.0491 36.4344V29.4027C63.0491 24.8623 61.2454 20.5078 58.0348 17.2972C54.8242 14.0866 50.4697 12.283 45.9293 12.283C41.3888 12.283 37.0343 14.0866 33.8238 17.2972C30.6132 20.5078 28.8095 24.8623 28.8095 29.4027V36.4344H32.6754V29.4027C32.6754 25.8876 34.0718 22.5164 36.5574 20.0308C39.043 17.5452 42.4142 16.1488 45.9293 16.1488C49.4445 16.1488 52.8157 17.5452 55.3013 20.0308C57.7869 22.5164 59.1833 25.8876 59.1833 29.4027V36.4344H63.0491Z" fill="black"/>
</svg>
