<svg width="30" height="30" viewBox="0 0 30 30" fill="none" xmlns="http://www.w3.org/2000/svg">
<path d="M15.004 9.37825C11.8974 9.37825 9.37872 11.8965 9.37872 15.0035C9.37872 18.1101 11.897 20.6288 15.004 20.6288C18.111 20.6288 20.6292 18.1101 20.6292 15.0035C20.6292 11.897 18.1105 9.37825 15.004 9.37825ZM15.004 17.8161C13.4505 17.8161 12.1914 16.557 12.1914 15.0035C12.1914 13.45 13.4505 12.1909 15.004 12.1909C16.5575 12.1909 17.8166 13.45 17.8166 15.0035C17.8166 16.557 16.5575 17.8161 15.004 17.8161ZM26.0286 11.9387C25.775 11.0213 25.407 10.1522 24.9452 9.34356C25.4707 8.63712 27.2797 5.99512 25.9761 4.69053L25.3067 3.98409C24.1914 2.86935 21.3432 4.61037 20.6513 5.06133C19.8333 4.59772 18.9543 4.22973 18.0262 3.97847C17.8776 3.09389 17.2274 0 15.3921 0H14.6576C13.082 0 12.1778 3.1989 11.9757 4.0005C11.0607 4.25598 10.1939 4.62584 9.38716 5.08805C8.75103 4.61506 6.02278 2.72919 4.691 4.0605L3.98456 4.65491C2.82388 5.81512 4.75241 8.87573 5.10493 9.41153C4.65866 10.2075 4.30098 11.0602 4.05441 11.9593C3.28515 12.0821 0 12.7159 0 14.606V15.3401C0 16.9775 3.445 17.8869 4.07363 18.0398C4.32348 18.9323 4.68303 19.7784 5.13071 20.5683C4.75991 21.1491 2.90639 24.1961 4.05628 25.347L4.72522 25.9039C6.23889 27.4175 9.40075 24.9312 9.40075 24.9312L9.25356 24.7746C10.0922 25.2706 11.0002 25.6634 11.9598 25.9325C12.1168 26.5789 13.0262 30 14.6576 30H15.3921C17.5325 30 18.0627 26.0056 18.0627 26.0056L17.8668 25.9995C18.8367 25.7515 19.7564 25.3784 20.6096 24.9002C21.278 25.3451 24.0789 27.0978 25.197 25.9803L25.9409 25.2359C27.433 23.7438 25.0048 20.6907 24.9368 20.6058C25.3981 19.7986 25.7679 18.9318 26.0225 18.0158C26.8569 17.804 29.9991 16.903 29.9991 15.3406V14.6065C29.9991 12.5331 26.262 11.972 26.0286 11.9387ZM15.004 23.4414C10.3439 23.4414 6.56609 19.6636 6.56609 15.0035C6.56609 10.3435 10.3439 6.56562 15.004 6.56562C19.664 6.56562 23.4419 10.3435 23.4419 15.0035C23.4419 19.6636 19.664 23.4414 15.004 23.4414Z" fill="black"/>
</svg>
