<svg width="36" height="30" viewBox="0 0 36 30" fill="none" xmlns="http://www.w3.org/2000/svg">
<path fill-rule="evenodd" clip-rule="evenodd" d="M16.1111 25H19.4444C20.365 25 21.1111 24.2539 21.1111 23.3333V9.44444C21.1111 8.52389 20.365 7.77778 19.4444 7.77778H16.1111C15.1906 7.77778 14.4444 8.52389 14.4444 9.44444V23.3333C14.4444 24.2539 15.1906 25 16.1111 25ZM25.5556 25H28.8889C29.8094 25 30.5556 24.2539 30.5556 23.3333V1.66667C30.5556 0.746111 29.8094 0 28.8889 0H25.5556C24.635 0 23.8889 0.746111 23.8889 1.66667V23.3333C23.8889 24.2539 24.635 25 25.5556 25ZM6.66667 25H10C10.9206 25 11.6667 24.2539 11.6667 23.3333V17.2222C11.6667 16.3017 10.9206 15.5556 10 15.5556H6.66667C5.74611 15.5556 5 16.3017 5 17.2222V23.3333C5 24.2539 5.74611 25 6.66667 25ZM34.1667 26.6667H1.38889C0.621667 26.6667 0 27.2889 0 28.0556V28.6111C0 29.3783 0.621667 30 1.38889 30H34.1667C34.9339 30 35.5556 29.3783 35.5556 28.6111V28.0556C35.5556 27.2889 34.9339 26.6667 34.1667 26.6667Z" fill="black"/>
</svg>
