<svg width="91" height="100" viewBox="0 0 91 100" fill="none" xmlns="http://www.w3.org/2000/svg">
<path d="M75.5974 60.5095V10.6528C75.5974 7.10246 72.7071 4.21216 69.1568 4.21216H43.0475C39.4972 4.21216 36.6069 7.10246 36.6069 10.6528V33.045H21.4646C17.9142 33.045 15.0239 35.9353 15.0239 39.4857V89.3445C15.0239 92.8949 17.9142 95.7852 21.4646 95.7852H47.5738C51.1242 95.7852 54.0145 92.8949 54.0145 89.3445V66.9502H69.1568C72.7071 66.9502 75.5974 64.062 75.5974 60.5095ZM46.997 88.7678H22.0413V40.0624H40.1156H46.997V63.4414V88.7678ZM68.58 59.9327H54.0145V39.4857C54.0145 35.9353 51.1242 33.045 47.5738 33.045H43.6243V11.2296H68.58V59.9327Z" fill="black"/>
<path d="M87.1126 88.3972C89.0512 88.3972 90.6213 86.827 90.6213 84.8885V73.29C90.6213 73.1737 90.6147 73.0575 90.6038 72.9413C90.5994 72.8908 90.5906 72.8426 90.5818 72.7944C90.5731 72.7308 90.5643 72.6672 90.5533 72.6036C90.5424 72.5466 90.527 72.4895 90.5117 72.4347C90.4985 72.3799 90.4854 72.3251 90.47 72.2702C90.4525 72.2154 90.4327 72.1606 90.413 72.1058C90.3933 72.0531 90.3757 71.9983 90.3538 71.9457C90.3319 71.8952 90.3077 71.8448 90.2836 71.7966C90.2573 71.7417 90.2332 71.6891 90.2069 71.6343C90.1805 71.586 90.152 71.54 90.1235 71.4939C90.0928 71.4413 90.0643 71.3909 90.0292 71.3382C89.9941 71.2856 89.9569 71.2374 89.9196 71.1891C89.8889 71.1475 89.8604 71.1036 89.8253 71.0641C89.6784 70.8843 89.5139 70.722 89.3363 70.5751C89.2946 70.5422 89.2529 70.5137 89.2113 70.4808C89.1608 70.4435 89.1126 70.404 89.0599 70.3712C89.0095 70.3383 88.9569 70.3076 88.9064 70.2769C88.8604 70.2483 88.8143 70.2198 88.7661 70.1935C88.7135 70.165 88.6586 70.1409 88.606 70.1168C88.5556 70.0926 88.5073 70.0685 88.4547 70.0466C88.4021 70.0247 88.3494 70.0071 88.2968 69.9896C88.242 69.9698 88.1871 69.9479 88.1323 69.9326C88.0797 69.9172 88.0249 69.9041 87.9722 69.8909C87.9152 69.8755 87.8582 69.8602 87.8012 69.8492C87.7398 69.8361 87.6762 69.8295 87.6148 69.8207C87.5644 69.8141 87.5139 69.8032 87.4635 69.7988C87.3473 69.7878 87.2332 69.7812 87.117 69.7812H75.5185C73.5799 69.7812 72.0098 71.3514 72.0098 73.29C72.0098 75.2285 73.5799 76.7987 75.5185 76.7987H78.6434L61.4332 94.0089C60.0626 95.3795 60.0626 97.601 61.4332 98.9716C62.1174 99.6558 63.0165 100 63.9134 100C64.8103 100 65.7095 99.658 66.3937 98.9716L83.6039 81.7613V84.8906C83.6039 86.827 85.1762 88.3972 87.1126 88.3972Z" fill="black"/>
<path d="M0 15.1089V26.7073C0 26.8236 0.0065784 26.9398 0.0175431 27.056C0.021929 27.1065 0.0307013 27.1547 0.0394731 27.203C0.0482449 27.2665 0.0570161 27.3301 0.0679808 27.3937C0.0789455 27.4508 0.0942967 27.5078 0.109647 27.5626C0.122805 27.6174 0.135962 27.6722 0.151313 27.7271C0.168857 27.7819 0.188594 27.8367 0.20833 27.8915C0.228067 27.9442 0.245609 27.999 0.267539 28.0516C0.289468 28.1021 0.313591 28.1525 0.337713 28.2007C0.364028 28.2556 0.388151 28.3082 0.414467 28.363C0.440782 28.4113 0.469291 28.4573 0.497799 28.5034C0.5285 28.556 0.557009 28.6064 0.592096 28.6591C0.627183 28.7117 0.664463 28.7599 0.701743 28.8082C0.732444 28.8499 0.760952 28.8937 0.796039 28.9332C0.942966 29.113 1.10744 29.2753 1.28507 29.4222C1.32454 29.4551 1.3684 29.4836 1.41006 29.5165C1.4605 29.5538 1.50875 29.5933 1.56138 29.6283C1.61182 29.6612 1.66225 29.6898 1.71488 29.7205C1.76313 29.749 1.80918 29.7775 1.85742 29.8038C1.91006 29.8323 1.96269 29.8542 2.01751 29.8805C2.06795 29.9047 2.11839 29.9288 2.16882 29.9507C2.22145 29.9726 2.27409 29.9902 2.32672 30.0077C2.38154 30.0275 2.43636 30.0494 2.49338 30.0669C2.54601 30.0823 2.59864 30.0954 2.65127 30.1086C2.70829 30.124 2.7675 30.1393 2.82451 30.1503C2.88592 30.1634 2.94732 30.17 3.00872 30.1788C3.06135 30.1854 3.11179 30.1963 3.16442 30.2007C3.27845 30.2117 3.39468 30.2183 3.51091 30.2183H15.1116C17.0502 30.2183 18.6203 28.6481 18.6203 26.7095C18.6203 24.771 17.0502 23.2008 15.1116 23.2008H11.9779L29.1881 5.99058C30.5587 4.61999 30.5587 2.39854 29.1881 1.02794C27.8175 -0.342648 25.5961 -0.342648 24.2255 1.02794L7.01524 18.2382V15.1089C7.01524 13.1703 5.44509 11.6001 3.50652 11.6001C1.56796 11.6001 0 13.1703 0 15.1089Z" fill="black"/>
</svg>
