<svg width="26" height="25" viewBox="0 0 26 25" fill="none" xmlns="http://www.w3.org/2000/svg">
<path d="M25.8102 23.7873C25.8102 23.7873 25.8102 19.3783 22.5892 17.7761C20.5506 16.7618 21.3362 17.5377 18.8335 16.5001C16.3311 15.4641 15.7383 15.1253 15.7383 15.1253L15.7161 12.7488C15.7161 12.7488 16.6534 12.0374 16.9457 9.78997C17.5309 9.95935 17.7289 9.104 17.7608 8.55756C17.7954 8.02967 18.1068 6.38429 17.391 6.53108C17.5373 5.43256 17.6523 4.43928 17.6007 3.91341C17.4216 2.06801 16.1456 0.140744 12.9247 0C10.1864 0.140744 8.40875 2.06922 8.22929 3.91462C8.17767 4.44049 8.28292 5.43296 8.42931 6.5335C7.7139 6.3847 8.022 8.03329 8.05346 8.56078C8.08814 9.10722 8.28171 9.965 8.86808 9.79562C9.15925 12.0435 10.0965 12.7601 10.0965 12.7601L10.0731 15.1495C10.0731 15.1495 9.48026 15.5113 6.97792 16.5473C4.47558 17.5853 5.26036 16.7622 3.22179 17.7761C0 19.3791 0 23.7873 0 23.7873H0.000806556C0.000403278 23.7882 0 23.7894 0 23.7902C0 24.4584 0.541602 25 1.20983 25H24.5999C25.2682 25 25.8098 24.4584 25.8098 23.7902C25.8098 23.789 25.8094 23.7882 25.8094 23.7873H25.8102Z" fill="#808080"/>
</svg>
